# xmcd
#
# Track frame offsets:
#	150
#	52592
#	86695
#	132007
#
# Disc length: 2287 seconds
#
# Revision: 1
# Processed by: cddbd v1.5PL3 Copyright (c) Steve Scherf et al.
# Submitted via: audiograbber 1.82.02
#
DISCID=2408ed04
DTITLE=Woody Shaw - Song Of Songs
DYEAR=1972
DGENRE=Jazz
TTITLE0=Song of Songs
TTITLE1=The Goat And The Archer
TTITLE2=Love: For The One You Can't Have
TTITLE3=The Awakening
EXTD=YEAR: 1972
EXTT0=
EXTT1=
EXTT2=
EXTT3=
PLAYORDER=
